<?xml version="1.0" encoding="utf-8"?>
<!-- Generator: Adobe Illustrator 14.0.0, SVG Export Plug-In . SVG Version: 6.00 Build 43363)  -->
<!DOCTYPE svg PUBLIC "-//W3C//DTD SVG 1.1//EN" "http://www.w3.org/Graphics/SVG/1.1/DTD/svg11.dtd">
<svg version="1.1" id="Layer_1" xmlns="http://www.w3.org/2000/svg" xmlns:xlink="http://www.w3.org/1999/xlink" x="0px" y="0px"
	 width="1664px" height="1600px" viewBox="192 192 1664 1600" enable-background="new 192 192 1664 1600" xml:space="preserve">
<path fill="#555555" d="M1472,1600c0-17.333-6.333-32.333-19-45s-27.667-19-45-19s-32.333,6.333-45,19s-19,27.667-19,45
	s6.333,32.333,19,45s27.667,19,45,19s32.333-6.333,45-19S1472,1617.333,1472,1600z M1728,1600c0-17.333-6.333-32.333-19-45
	s-27.667-19-45-19s-32.333,6.333-45,19s-19,27.667-19,45s6.333,32.333,19,45s27.667,19,45,19s32.333-6.333,45-19
	S1728,1617.333,1728,1600z M1856,1376v320c0,26.667-9.333,49.333-28,68s-41.333,28-68,28H288c-26.667,0-49.333-9.333-68-28
	s-28-41.333-28-68v-320c0-26.667,9.333-49.333,28-68s41.333-28,68-28h427c14,37.333,37.5,68,70.5,92s69.833,36,110.5,36h256
	c40.667,0,77.5-12,110.5-36s56.5-54.667,70.5-92h427c26.667,0,49.333,9.333,68,28S1856,1349.333,1856,1376z M1531,728
	c-11.333,26.667-31,40-59,40h-256v448c0,17.333-6.333,32.333-19,45s-27.667,19-45,19H896c-17.333,0-32.333-6.333-45-19
	s-19-27.667-19-45V768H576c-28,0-47.667-13.333-59-40c-11.333-26-6.667-49,14-69l448-448c12-12.667,27-19,45-19s33,6.333,45,19
	l448,448C1537.667,679,1542.333,702,1531,728z"/>
</svg>
