<?xml version="1.0" encoding="utf-8"?>
<!-- Generator: Adobe Illustrator 14.0.0, SVG Export Plug-In . SVG Version: 6.00 Build 43363)  -->
<!DOCTYPE svg PUBLIC "-//W3C//DTD SVG 1.1//EN" "http://www.w3.org/Graphics/SVG/1.1/DTD/svg11.dtd">
<svg version="1.1" id="Layer_1" xmlns="http://www.w3.org/2000/svg" xmlns:xlink="http://www.w3.org/1999/xlink" x="0px" y="0px"
	 width="1536px" height="1536px" viewBox="332 308 1536 1536" enable-background="new 332 308 1536 1536" xml:space="preserve">
<path fill="#FFFFFF" d="M1516,1076c0,24.667-10.667,43-32,55l-544,320c-10,6-20.667,9-32,9c-10.667,0-21.333-2.667-32-8
	c-21.333-12.667-32-31.333-32-56V756c0-24.667,10.667-43.333,32-56c22-12,43.333-11.667,64,1l544,320
	C1505.333,1033,1516,1051.333,1516,1076z M1644,1076c0-98.667-24.333-189.667-73-273s-114.667-149.333-198-198s-174.333-73-273-73
	s-189.667,24.333-273,73S677.667,719.667,629,803s-73,174.333-73,273s24.333,189.667,73,273s114.667,149.333,198,198
	s174.333,73,273,73s189.667-24.333,273-73s149.333-114.667,198-198S1644,1174.667,1644,1076z M1868,1076
	c0,139.333-34.333,267.833-103,385.5s-161.833,210.833-279.5,279.5s-246.167,103-385.5,103s-267.833-34.333-385.5-103
	S503.667,1579.167,435,1461.5S332,1215.333,332,1076s34.333-267.833,103-385.5S596.833,479.667,714.5,411S960.667,308,1100,308
	s267.833,34.333,385.5,103s210.833,161.833,279.5,279.5S1868,936.667,1868,1076z"/>
</svg>
