<?xml version="1.0" encoding="utf-8"?>
<!-- Generator: Adobe Illustrator 14.0.0, SVG Export Plug-In . SVG Version: 6.00 Build 43363)  -->
<!DOCTYPE svg PUBLIC "-//W3C//DTD SVG 1.1//EN" "http://www.w3.org/Graphics/SVG/1.1/DTD/svg11.dtd">
<svg version="1.1" id="Layer_1" xmlns="http://www.w3.org/2000/svg" xmlns:xlink="http://www.w3.org/1999/xlink" x="0px" y="0px"
	 width="1792px" height="1280px" viewBox="0 0 1792 1280" enable-background="new 0 0 1792 1280" xml:space="preserve">
<path fill="#555555" d="M1792,96v1088c0,28-13,47.667-39,59c-8.668,3.333-17,5-25,5c-18,0-33-6.333-45-19l-403-403v166
	c0,79.333-28.168,147.167-84.5,203.5c-56.334,56.333-124.168,84.5-203.5,84.5H288c-79.333,0-147.167-28.167-203.5-84.5
	S0,1071.333,0,992V288c0-79.333,28.167-147.167,84.5-203.5S208.667,0,288,0h704c79.332,0,147.166,28.167,203.5,84.5
	c56.332,56.333,84.5,124.167,84.5,203.5v165l403-402c12-12.667,27-19,45-19c8,0,16.332,1.667,25,5C1779,48.333,1792,68,1792,96z"/>
</svg>
