<?xml version="1.0" encoding="utf-8"?>
<!-- Generator: Adobe Illustrator 14.0.0, SVG Export Plug-In . SVG Version: 6.00 Build 43363)  -->
<!DOCTYPE svg PUBLIC "-//W3C//DTD SVG 1.1//EN" "http://www.w3.org/Graphics/SVG/1.1/DTD/svg11.dtd">
<svg version="1.1" id="Layer_1" xmlns="http://www.w3.org/2000/svg" xmlns:xlink="http://www.w3.org/1999/xlink" x="0px" y="0px"
	 width="1792px" height="1536.308px" viewBox="128 384 1792 1536.308" enable-background="new 128 384 1792 1536.308"
	 xml:space="preserve">
<path fill="#555555" d="M1920,1024c0,116-40,223.167-120,321.5s-188.667,176-326,233s-287.333,85.5-450,85.5
	c-46.667,0-95-2.667-145-8c-132,116.667-285.333,197.333-460,242c-32.667,9.333-70.667,16.667-114,22
	c-11.333,1.333-21.5-1.667-30.5-9s-14.833-17-17.5-29v-1c-2-2.667-2.167-6.667-0.5-12s2.333-8.667,2-10s1.167-4.5,4.5-9.5l6-9l7-8.5
	l8-9c4.667-5.333,15-16.833,31-34.5s27.5-30.333,34.5-38s17.333-20.833,31-39.5s24.5-35.667,32.5-51s17-35,27-59
	s18.667-49.333,26-76c-104.667-59.333-187.167-132.667-247.5-220S128,1124,128,1024c0-86.667,23.667-169.5,71-248.5
	S310,628.333,390,571s175.333-102.833,286-136.5S902.667,384,1024,384c162.667,0,312.667,28.5,450,85.5s246,134.667,326,233
	S1920,908,1920,1024z"/>
</svg>
