<?xml version="1.0" encoding="utf-8"?>
<!-- Generator: Adobe Illustrator 14.0.0, SVG Export Plug-In . SVG Version: 6.00 Build 43363)  -->
<!DOCTYPE svg PUBLIC "-//W3C//DTD SVG 1.1//EN" "http://www.w3.org/Graphics/SVG/1.1/DTD/svg11.dtd">
<svg version="1.1" id="Layer_1" xmlns="http://www.w3.org/2000/svg" xmlns:xlink="http://www.w3.org/1999/xlink" x="0px" y="0px"
	 width="1036px" height="1612px" viewBox="538 154 1036 1612" enable-background="new 538 154 1036 1612" xml:space="preserve">
<path fill="#FFFFFF" d="M1555,429l-531,531l531,531c12.667,12.667,19,27.667,19,45s-6.333,32.333-19,45l-166,166
	c-12.667,12.667-27.667,19-45,19s-32.333-6.333-45-19l-742-742c-12.667-12.667-19-27.667-19-45s6.333-32.333,19-45l742-742
	c12.667-12.667,27.667-19,45-19s32.333,6.333,45,19l166,166c12.667,12.667,19,27.667,19,45S1567.667,416.333,1555,429z"/>
</svg>
