<?xml version="1.0" encoding="utf-8"?>
<!-- Generator: Adobe Illustrator 14.0.0, SVG Export Plug-In . SVG Version: 6.00 Build 43363)  -->
<!DOCTYPE svg PUBLIC "-//W3C//DTD SVG 1.1//EN" "http://www.w3.org/Graphics/SVG/1.1/DTD/svg11.dtd">
<svg version="1.1" id="Layer_1" xmlns="http://www.w3.org/2000/svg" xmlns:xlink="http://www.w3.org/1999/xlink" x="0px" y="0px"
	 width="1920px" height="1664px" viewBox="64 128 1920 1664" enable-background="new 64 128 1920 1664" xml:space="preserve">
<path fill="#555555" d="M1856,1120V288c0-8.667-3.167-16.167-9.5-22.5s-13.833-9.5-22.5-9.5H224c-8.667,0-16.167,3.167-22.5,9.5
	S192,279.333,192,288v832c0,8.667,3.167,16.167,9.5,22.5s13.833,9.5,22.5,9.5h1600c8.667,0,16.167-3.167,22.5-9.5
	S1856,1128.667,1856,1120z M1984,288v1088c0,44-15.667,81.667-47,113s-69,47-113,47h-544c0,24.667,5.333,50.5,16,77.5
	s21.333,50.667,32,71s16,34.833,16,43.5c0,17.333-6.333,32.333-19,45s-27.667,19-45,19H768c-17.333,0-32.333-6.333-45-19
	s-19-27.667-19-45c0-9.333,5.333-24,16-44s21.333-43.333,32-70s16-52.667,16-78H224c-44,0-81.667-15.667-113-47s-47-69-47-113V288
	c0-44,15.667-81.667,47-113s69-47,113-47h1600c44,0,81.667,15.667,113,47S1984,244,1984,288z"/>
</svg>
