<?xml version="1.0" encoding="utf-8"?>
<!-- Generator: Adobe Illustrator 14.0.0, SVG Export Plug-In . SVG Version: 6.00 Build 43363)  -->
<!DOCTYPE svg PUBLIC "-//W3C//DTD SVG 1.1//EN" "http://www.w3.org/Graphics/SVG/1.1/DTD/svg11.dtd">
<svg version="1.1" id="Layer_1" xmlns="http://www.w3.org/2000/svg" xmlns:xlink="http://www.w3.org/1999/xlink" x="0px" y="0px"
	 width="1664px" height="1664px" viewBox="192 256 1664 1664" enable-background="new 192 256 1664 1664" xml:space="preserve">
<path fill="#AAAAAA" d="M1344,960c0-123.333-43.833-228.833-131.5-316.5S1019.333,512,896,512s-228.833,43.833-316.5,131.5
	S448,836.667,448,960s43.833,228.833,131.5,316.5S772.667,1408,896,1408s228.833-43.833,316.5-131.5S1344,1083.333,1344,960z
	 M1856,1792c0,34.667-12.667,64.667-38,90s-55.333,38-90,38c-36,0-66-12.667-90-38l-343-342c-119.333,82.667-252.333,124-399,124
	c-95.333,0-186.5-18.5-273.5-55.5s-162-87-225-150s-113-138-150-225S192,1055.333,192,960s18.5-186.5,55.5-273.5s87-162,150-225
	s138-113,225-150S800.667,256,896,256s186.5,18.5,273.5,55.5s162,87,225,150s113,138,150,225S1600,864.667,1600,960
	c0,146.667-41.333,279.667-124,399l343,343C1843.667,1726.667,1856,1756.667,1856,1792z"/>
</svg>
