<?xml version="1.0" encoding="utf-8"?>
<!-- Generator: Adobe Illustrator 14.0.0, SVG Export Plug-In . SVG Version: 6.00 Build 43363)  -->
<!DOCTYPE svg PUBLIC "-//W3C//DTD SVG 1.1//EN" "http://www.w3.org/Graphics/SVG/1.1/DTD/svg11.dtd">
<svg version="1.1" id="Layer_1" xmlns="http://www.w3.org/2000/svg" xmlns:xlink="http://www.w3.org/1999/xlink" x="0px" y="0px"
	 width="1605px" height="1283px" viewBox="218 381 1605 1283" enable-background="new 218 381 1605 1283" xml:space="preserve">
<path fill="#555555" d="M1600,1120v480c0,17.333-6.333,32.333-19,45s-27.667,19-45,19h-384v-384H896v384H512
	c-17.333,0-32.333-6.333-45-19s-19-27.667-19-45v-480c0-0.667,0.167-1.667,0.5-3s0.5-2.333,0.5-3l575-474l575,474
	C1599.667,1115.333,1600,1117.333,1600,1120z M1823,1051l-62,74c-5.333,6-12.333,9.667-21,11h-3c-8.667,0-15.667-2.333-21-7
	l-692-577l-692,577c-8,5.333-16,7.667-24,7c-8.667-1.333-15.667-5-21-11l-62-74c-5.333-6.667-7.667-14.5-7-23.5
	s4.333-16.167,11-21.5l719-599c21.333-17.333,46.667-26,76-26s54.667,8.667,76,26l244,204V416c0-9.333,3-17,9-23s13.667-9,23-9h192
	c9.333,0,17,3,23,9s9,13.667,9,23v408l219,182c6.667,5.333,10.333,12.5,11,21.5S1828.333,1044.333,1823,1051z"/>
</svg>
