<?xml version="1.0" encoding="utf-8"?>
<!-- Generator: Adobe Illustrator 14.0.0, SVG Export Plug-In . SVG Version: 6.00 Build 43363)  -->
<!DOCTYPE svg PUBLIC "-//W3C//DTD SVG 1.1//EN" "http://www.w3.org/Graphics/SVG/1.1/DTD/svg11.dtd">
<svg version="1.1" id="Layer_1" xmlns="http://www.w3.org/2000/svg" xmlns:xlink="http://www.w3.org/1999/xlink" x="0px" y="0px"
	 width="1792px" height="1600px" viewBox="128 192 1792 1600" enable-background="new 128 192 1792 1600" xml:space="preserve">
<path fill="#555555" d="M1920,768c0,17.333-6.333,32.333-19,45l-512,512c-12.667,12.667-27.667,19-45,19s-32.333-6.333-45-19
	s-19-27.667-19-45v-256h-224c-65.333,0-123.833,2-175.5,6s-103,11.167-154,21.5s-95.333,24.5-133,42.5s-72.833,41.167-105.5,69.5
	s-59.333,62-80,101s-36.833,85.167-48.5,138.5S342,1516.667,342,1584c0,36.667,1.667,77.667,5,123c0,4,0.833,11.833,2.5,23.5
	s2.5,20.5,2.5,26.5c0,10-2.833,18.333-8.5,25s-13.5,10-23.5,10c-10.667,0-20-5.667-28-17c-4.667-6-9-13.333-13-22
	s-8.5-18.667-13.5-30s-8.5-19.333-10.5-24c-84.667-190-127-340.333-127-451c0-132.667,17.667-243.667,53-333
	c108-268.667,399.667-403,875-403h224V256c0-17.333,6.333-32.333,19-45s27.667-19,45-19s32.333,6.333,45,19l512,512
	C1913.667,735.667,1920,750.667,1920,768z"/>
</svg>
