<?xml version="1.0" encoding="utf-8"?>
<!-- Generator: Adobe Illustrator 14.0.0, SVG Export Plug-In . SVG Version: 6.00 Build 43363)  -->
<!DOCTYPE svg PUBLIC "-//W3C//DTD SVG 1.1//EN" "http://www.w3.org/Graphics/SVG/1.1/DTD/svg11.dtd">
<svg version="1.1" id="Layer_1" xmlns="http://www.w3.org/2000/svg" xmlns:xlink="http://www.w3.org/1999/xlink" x="0px" y="0px"
	 width="1664px" height="1536px" viewBox="192 256 1664 1536" enable-background="new 192 256 1664 1536" xml:space="preserve">
<path fill="#555555" d="M917,687l-170,450c22,0,67.5,0.667,136.5,2s122.5,2,160.5,2c12.667,0,31.667-0.667,57-2
	C1043,970.333,981.667,819.667,917,687z M192,1792l2-79c15.333-4.667,34-8.833,56-12.5s41-7.167,57-10.5s32.5-8.167,49.5-14.5
	s31.833-16,44.5-29s23-29.833,31-50.5l237-616l280-724h128c5.333,9.333,9,16.333,11,21l205,480c22,52,57.333,137.833,106,257.5
	s86.667,211.167,114,274.5c10,22.667,29.333,70.833,58,144.5s52.667,129.833,72,168.5c13.333,30,25,49,35,57
	c12.667,10,42,19.833,88,29.5s74,16.5,84,20.5c4,25.333,6,44.333,6,57c0,2.667-0.167,7-0.5,13s-0.5,10.333-0.5,13
	c-42,0-105.333-2.667-190-8s-148.333-8-191-8c-50.667,0-122.333,2.333-215,7s-152,7.333-178,8c0-28.667,1.333-54.667,4-78l131-28
	c0.667,0,4.833-0.833,12.5-2.5s12.833-2.833,15.5-3.5s7.5-2.167,14.5-4.5s12-4.5,15-6.5s6.667-4.667,11-8s7.333-7,9-11
	s2.5-8.667,2.5-14c0-10.667-10.333-42.833-31-96.5s-44.667-112.833-72-177.5s-41.333-98-42-100l-450-2
	c-17.333,38.667-42.833,103.833-76.5,195.5S574,1600.333,574,1617c0,14.667,4.667,27.167,14,37.5s23.833,18.5,43.5,24.5
	s35.833,10.5,48.5,13.5s31.667,5.833,57,8.5s39,4,41,4c0.667,12.667,1,32,1,58c0,6-0.667,15-2,27c-38.667,0-96.833-3.333-174.5-10
	s-135.833-10-174.5-10c-5.333,0-14.167,1.333-26.5,4s-19.5,4-21.5,4C326.667,1787.333,264,1792,192,1792z"/>
</svg>
