<?xml version="1.0" encoding="utf-8"?>
<!-- Generator: Adobe Illustrator 14.0.0, SVG Export Plug-In  -->
<!DOCTYPE svg PUBLIC "-//W3C//DTD SVG 1.1//EN" "http://www.w3.org/Graphics/SVG/1.1/DTD/svg11.dtd" [
	<!ENTITY ns_flows "http://ns.adobe.com/Flows/1.0/">
]>
<svg version="1.1"
	 xmlns="http://www.w3.org/2000/svg" xmlns:xlink="http://www.w3.org/1999/xlink" xmlns:a="http://ns.adobe.com/AdobeSVGViewerExtensions/3.0/"
	 x="0px" y="0px" width="198px" height="18px" viewBox="-0.525 0.003 198 18" enable-background="new -0.525 0.003 198 18"
	 xml:space="preserve">
<defs>
</defs>
<path fill="#FFFFFF" d="M0,9.661c0-4.556,2.562-9.532,7.664-9.532c1.827,0,4.64,0.777,4.64,3.044c0,1.218-0.84,1.911-2.163,1.911
	c-0.861,0,0.294-1.974-2.373-1.974c-3.065,0-4.367,3.128-4.367,5.753c0,4.01,2.729,5.627,4.556,5.627
	c3.422,0,3.716-3.065,3.905-3.065c0.294,0,0.462,1.68,0.462,1.89c0,3.107-2.394,4.913-5.333,4.913C2.226,18.228,0,13.902,0,9.661z"
	/>
<path fill="#FFFFFF" d="M22.825,4.475c0.882,0,0.903,4.409,0.903,6.404c0,7.706-0.546,7.349-2.058,7.349
	c-2.205,0-0.525-1.176-1.722-1.176c-0.189,0-0.672,0.441-1.05,0.693c-0.378,0.231-0.861,0.483-1.554,0.483
	c-1.743,0-3.359-1.092-3.359-7.097c0-0.357,0.147-6.656,1.029-6.656h1.932c0.273,0,0.84-0.105,0.84,0.315
	c0,0.315-0.966,2.415-0.966,6.383c0,1.176-0.021,4.367,1.785,4.367c0.693,0,2.289-0.21,2.289-4.724c0-2.52-0.735-5.753-0.735-6.089
	c0-0.273,0.483-0.252,0.714-0.252H22.825z"/>
<path fill="#FFFFFF" d="M26.816,17.913c-0.714,0-1.155,0.672-1.155-5.543c0-8.839-0.273-8.566,2.583-8.566
	c0.441,0,0.903,0.021,0.903,0.336c0,0.252-0.252,0.651-0.252,0.945c0,0.21,0.21,0.357,0.42,0.357c0.252,0,0.546-0.252,1.008-0.483
	c0.462-0.252,1.092-0.483,1.974-0.483c1.029,0,1.701,0.966,2.226,0.966c0.294,0,0.714-0.063,1.239-0.378
	c0.525-0.294,1.176-0.588,1.932-0.588c3.863,0,3.779,5.06,3.779,7.748c0,6.404-0.798,5.69-1.407,5.69h-1.428
	c-0.21,0-0.798,0.042-0.798-0.336s0.798-2.688,0.798-6.194c0-4.01-1.428-4.43-2.226-4.43c-0.735,0-1.428-0.063-1.428,3.401
	c0,7.538-0.105,7.559-0.777,7.559h-1.89c-0.399,0-0.735,0.084-0.735-0.21c0-0.315,0.798-4.535,0.798-6.53c0-1.26,0-4.22-1.722-4.22
	c-1.575,0-2.163,1.932-2.163,5.06c0,4.22,0.588,5.018,0.588,5.606c0,0.357-0.378,0.294-0.609,0.294H26.816z"/>
<path fill="#FFFFFF" d="M52.246,4.475c0.882,0,0.903,4.409,0.903,6.404c0,7.706-0.546,7.349-2.058,7.349
	c-2.205,0-0.525-1.176-1.722-1.176c-0.189,0-0.672,0.441-1.05,0.693c-0.378,0.231-0.861,0.483-1.554,0.483
	c-1.743,0-3.359-1.092-3.359-7.097c0-0.357,0.147-6.656,1.029-6.656h1.932c0.273,0,0.84-0.105,0.84,0.315
	c0,0.315-0.966,2.415-0.966,6.383c0,1.176-0.021,4.367,1.785,4.367c0.693,0,2.289-0.21,2.289-4.724c0-2.52-0.735-5.753-0.735-6.089
	c0-0.273,0.483-0.252,0.714-0.252H52.246z"/>
<path fill="#FFFFFF" d="M55.922,17.913c-0.735,0-0.651-7.034-0.651-7.517c0-0.987-0.084-10.393,0.861-10.393h1.995
	c0.231,0,0.861-0.063,0.861,0.399c0,0.126-0.882,3.149-0.882,8.377c0,5.774,0.798,8.608,0.798,8.881
	c0,0.357-0.546,0.252-0.777,0.252H55.922z"/>
<path fill="#FFFFFF" d="M69.318,4.475c0.882,0,0.903,4.409,0.903,6.404c0,7.706-0.546,7.349-2.058,7.349
	c-2.205,0-0.525-1.176-1.722-1.176c-0.189,0-0.672,0.441-1.05,0.693c-0.378,0.231-0.861,0.483-1.554,0.483
	c-1.743,0-3.359-1.092-3.359-7.097c0-0.357,0.147-6.656,1.029-6.656h1.932c0.273,0,0.84-0.105,0.84,0.315
	c0,0.315-0.966,2.415-0.966,6.383c0,1.176-0.021,4.367,1.785,4.367c0.693,0,2.289-0.21,2.289-4.724c0-2.52-0.735-5.753-0.735-6.089
	c0-0.273,0.483-0.252,0.714-0.252H69.318z"/>
<path fill="#FFFFFF" d="M72.008,14.469c0-0.987,0.504-2.247,0.672-2.247c0.105,0,0.63,3.17,3.611,3.17
	c0.861,0,1.869-0.441,1.869-1.512c0-2.163-5.669-1.596-5.669-5.774c0-2.562,2.058-3.947,4.325-3.947
	c2.625,0,4.073,1.575,4.073,1.995c0,0.399-1.176,2.1-1.659,2.1c-0.546,0-0.672-1.617-2.604-1.617c-0.651,0-1.533,0.294-1.533,0.924
	c0,2.163,6.131,2.121,6.131,6.383c0,2.729-2.268,4.283-4.787,4.283C74.213,18.228,72.008,16.926,72.008,14.469z"/>
<path fill="#FFFFFF" d="M82.571,9.661c0-4.556,2.562-9.532,7.664-9.532c1.827,0,4.64,0.777,4.64,3.044
	c0,1.218-0.84,1.911-2.163,1.911c-0.861,0,0.294-1.974-2.373-1.974c-3.065,0-4.367,3.128-4.367,5.753
	c0,4.01,2.729,5.627,4.556,5.627c3.422,0,3.716-3.065,3.905-3.065c0.294,0,0.462,1.68,0.462,1.89c0,3.107-2.394,4.913-5.333,4.913
	C84.797,18.228,82.571,13.902,82.571,9.661z"/>
<path fill="#FFFFFF" d="M97.396,17.913c-0.735,0-0.651-7.034-0.651-7.517c0-0.987-0.084-10.393,0.861-10.393h1.995
	c0.231,0,0.861-0.063,0.861,0.399c0,0.126-0.882,3.149-0.882,8.377c0,5.774,0.798,8.608,0.798,8.881
	c0,0.357-0.546,0.252-0.777,0.252H97.396z"/>
<path fill="#FFFFFF" d="M103.066,17.913c-1.028,0-1.112,0.441-1.112-6.95c0-7.181,0.336-6.488,1.028-6.488h1.155
	c0.881,0,0.902,0.063,0.902,0.315c0,0.777-0.252,1.554-0.252,3.842c0,5.291,0.818,8.545,0.818,8.734
	c0,0.672-0.629,0.546-1.112,0.546H103.066z M102.185,1.452c0-0.903,0.777-1.449,1.617-1.449s1.616,0.546,1.616,1.449
	s-0.776,1.386-1.616,1.386S102.185,2.354,102.185,1.452z"/>
<path fill="#FFFFFF" d="M108.484,17.913c-0.651,0-0.944,0.189-0.944-3.422V8.317c0-4.472,0.336-4.157,3.904-4.157
	c4.703,0,5.879,2.205,5.879,4.43c0,3.275-3.212,6.572-4.828,6.572c-0.379,0-0.777-0.504-1.113-0.903
	c-0.336-0.378-0.609-0.777-0.756-0.777c-0.21,0-0.146,0.378-0.146,0.756c0,1.47,0.398,3.149,0.398,3.38
	c0,0.336-0.441,0.294-0.672,0.294H108.484z M114.72,8.947c0-1.365-1.112-2.31-2.436-2.31c-1.112,0-1.91,0.084-1.91,4.262
	c0,0.735,0.021,1.575,0.966,1.575C113.208,12.475,114.72,10.69,114.72,8.947z"/>
<path fill="#FFFFFF" d="M118.417,14.469c0-0.987,0.504-2.247,0.672-2.247c0.105,0,0.631,3.17,3.611,3.17
	c0.861,0,1.869-0.441,1.869-1.512c0-2.163-5.669-1.596-5.669-5.774c0-2.562,2.058-3.947,4.325-3.947
	c2.625,0,4.073,1.575,4.073,1.995c0,0.399-1.176,2.1-1.659,2.1c-0.545,0-0.672-1.617-2.604-1.617c-0.65,0-1.532,0.294-1.532,0.924
	c0,2.163,6.131,2.121,6.131,6.383c0,2.729-2.268,4.283-4.787,4.283C120.622,18.228,118.417,16.926,118.417,14.469z"/>
<path fill="#FFFFFF" d="M136.75,17.913c-0.524,0-1.155,0.399-1.155-7.475c0-10.372,1.092-9.994,1.449-9.994h1.932
	c0.818,0,1.113,0,2.142,1.407c1.974,2.708,2.1,4.241,2.52,4.241c0.315,0,0.44-1.533,2.667-4.241c1.176-1.428,1.49-1.407,2.309-1.407
	h1.639c0.356,0,1.448-0.378,1.448,9.994c0,7.874-0.63,7.475-1.155,7.475h-2.688c-0.252,0-0.756,0.063-0.756-0.315
	c0-0.294,1.197-4.073,1.197-9.553c0-0.441,0.063-3.023-0.63-3.023c-0.608,0-1.407,2.079-1.616,2.583
	c-1.764,4.304-1.051,6.278-2.457,6.278c-1.764,0-1.07-1.974-2.939-6.278c-0.21-0.462-0.902-2.583-1.554-2.583
	c-0.692,0-0.672,2.583-0.672,3.023c0,5.48,1.323,9.259,1.323,9.553c0,0.378-0.504,0.315-0.756,0.315H136.75z"/>
<path fill="#FFFFFF" d="M153.192,11.173c0-3.38,1.617-7.013,5.271-7.013s5.271,3.632,5.271,7.013c0,4.934-2.855,7.055-5.271,7.055
	S153.192,16.107,153.192,11.173z M161.13,10.648c0-1.659-0.588-4.01-2.667-4.01s-2.667,2.352-2.667,4.01
	c0,1.68,0.547,4.073,2.667,4.073S161.13,12.328,161.13,10.648z"/>
<path fill="#FFFFFF" d="M168.039,0.003c0.252,0,0.756,0,0.756,0.462c0,0.168-0.63,2.268-0.63,3.506c0,0.336,0.063,0.672,0.462,0.672
	c0.231,0,0.524-0.105,0.86-0.231c0.357-0.105,0.777-0.252,1.219-0.252c1.784,0,4.283,1.596,4.283,6.026
	c0,2.415-0.609,4.346-2.143,6.089c-0.608,0.714-1.721,1.638-3.316,1.638h-3.717c-0.734,0-0.65-7.034-0.65-7.517
	c0-0.987-0.084-10.393,0.86-10.393H168.039z M172.154,10.438c0-3.443-1.491-4.283-2.372-4.283c-1.491,0-1.785,0.735-1.785,3.8
	c0,4.535,1.07,4.451,1.617,4.451C171.671,14.406,172.154,11.992,172.154,10.438z"/>
<path fill="#FFFFFF" d="M177.511,17.913c-1.029,0-1.113,0.441-1.113-6.95c0-7.181,0.336-6.488,1.029-6.488h1.154
	c0.882,0,0.902,0.063,0.902,0.315c0,0.777-0.252,1.554-0.252,3.842c0,5.291,0.819,8.545,0.819,8.734c0,0.672-0.63,0.546-1.112,0.546
	H177.511z M176.628,1.452c0-0.903,0.777-1.449,1.617-1.449s1.617,0.546,1.617,1.449s-0.777,1.386-1.617,1.386
	S176.628,2.354,176.628,1.452z"/>
<path fill="#FFFFFF" d="M182.823,17.913c-0.734,0-0.65-7.034-0.65-7.517c0-0.987-0.084-10.393,0.86-10.393h1.995
	c0.23,0,0.86-0.063,0.86,0.399c0,0.126-0.882,3.149-0.882,8.377c0,5.774,0.798,8.608,0.798,8.881c0,0.357-0.546,0.252-0.776,0.252
	H182.823z"/>
<path fill="#FFFFFF" d="M186.855,11.761c0-5.081,2.813-7.601,5.627-7.601c2.31,0,4.263,1.302,4.263,3.779
	c0,4.514-6.762,3.569-6.762,5.753c0,0.987,1.596,1.701,2.646,1.701c3.443,0,3.443-2.625,3.736-2.625c0.315,0,0.379,1.092,0.379,1.26
	c0,2.667-2.059,4.199-4.578,4.199C188.409,18.228,186.855,15.12,186.855,11.761z M189.69,9.682c0,0.231,0.104,0.462,0.377,0.462
	c0.252,0,4.074-0.84,4.074-1.911c0-1.029-0.967-1.596-1.764-1.596C190.677,6.638,189.69,8.464,189.69,9.682z"/>
</svg>
